<svg xmlns="http://www.w3.org/2000/svg" xmlns:xlink="http://www.w3.org/1999/xlink" width="793" zoomAndPan="magnify" viewBox="0 0 595.5 842.249979" height="1122" preserveAspectRatio="xMidYMid meet" version="1.0"><defs><clipPath id="71a2efdfe4"><path d="M 0.015625 0 L 594.984375 0 L 594.984375 841.5 L 0.015625 841.5 Z M 0.015625 0 " clip-rule="nonzero"/></clipPath><clipPath id="32600005de"><path d="M 0.015625 314 L 594.984375 314 L 594.984375 841.5 L 0.015625 841.5 Z M 0.015625 314 " clip-rule="nonzero"/></clipPath><clipPath id="b0c8acafc6"><path d="M 0.015625 423 L 594.984375 423 L 594.984375 841.5 L 0.015625 841.5 Z M 0.015625 423 " clip-rule="nonzero"/></clipPath><clipPath id="459a282442"><path d="M 0.015625 523 L 594.984375 523 L 594.984375 841.5 L 0.015625 841.5 Z M 0.015625 523 " clip-rule="nonzero"/></clipPath><clipPath id="9d79364809"><path d="M 0.015625 629 L 594.984375 629 L 594.984375 841.5 L 0.015625 841.5 Z M 0.015625 629 " clip-rule="nonzero"/></clipPath><clipPath id="843e932ea2"><path d="M 423 101.410156 L 429 101.410156 L 429 106 L 423 106 Z M 423 101.410156 " clip-rule="nonzero"/></clipPath><clipPath id="62ba04d31b"><path d="M 422 0 L 594.984375 0 L 594.984375 101 L 422 101 Z M 422 0 " clip-rule="nonzero"/></clipPath><clipPath id="c05a6b23c5"><path d="M 0.015625 168 L 201 168 L 201 306 L 0.015625 306 Z M 0.015625 168 " clip-rule="nonzero"/></clipPath><clipPath id="a5acc7a9d8"><path d="M 45.253906 26 L 193.558594 26 L 193.558594 77.726562 L 45.253906 77.726562 Z M 45.253906 26 " clip-rule="nonzero"/></clipPath><clipPath id="894fa360bd"><path d="M 533.484375 255 L 594.984375 255 L 594.984375 306.515625 L 533.484375 306.515625 Z M 533.484375 255 " clip-rule="nonzero"/></clipPath></defs><g clip-path="url(#71a2efdfe4)"><path fill="#ffffff" d="M 0.015625 0 L 595.484375 0 L 595.484375 848.957031 L 0.015625 848.957031 Z M 0.015625 0 " fill-opacity="1" fill-rule="nonzero"/><path fill="#ffffff" d="M 0.015625 0 L 595.484375 0 L 595.484375 842.207031 L 0.015625 842.207031 Z M 0.015625 0 " fill-opacity="1" fill-rule="nonzero"/><path fill="#16201a" d="M 0.015625 0 L 595.484375 0 L 595.484375 842.207031 L 0.015625 842.207031 Z M 0.015625 0 " fill-opacity="1" fill-rule="nonzero"/></g><path fill="#fdf8db" d="M 151.488281 257.988281 C 117.300781 220.789062 112.851562 166.585938 137.019531 125.097656 C 127 129.863281 117.460938 136.066406 108.875 144.011719 C 63.085938 186.136719 59.90625 257.351562 102.039062 303.289062 C 144.171875 349.230469 215.5625 352.25 261.355469 310.125 C 269.941406 302.179688 277.09375 293.277344 282.660156 283.738281 C 239.253906 304.246094 185.671875 295.183594 151.488281 257.988281 Z M 151.488281 257.988281 " fill-opacity="1" fill-rule="nonzero"/><g clip-path="url(#32600005de)"><path fill="#edc99d" d="M 613.214844 417.742188 C 613.214844 417.742188 587.9375 375.140625 564.882812 377.207031 C 541.828125 379.273438 530.0625 377.207031 507.007812 351.933594 C 483.953125 326.65625 442.929688 320.457031 430.527344 315.691406 C 418.125 310.921875 409.0625 319.1875 377.898438 334.921875 C 346.894531 350.660156 326.703125 373.550781 303.808594 380.386719 C 280.910156 387.222656 247.839844 385.15625 229.238281 400.890625 C 210.632812 416.628906 156.097656 433.796875 139.402344 442.699219 C 122.707031 451.601562 -6.398438 507.554688 -6.398438 507.554688 L -6.398438 896.371094 L 612.898438 896.371094 L 612.898438 417.742188 Z M 613.214844 417.742188 " fill-opacity="1" fill-rule="nonzero"/></g><g clip-path="url(#b0c8acafc6)"><path fill="#e2aa6d" d="M 613.214844 568.117188 C 613.214844 568.117188 548.1875 495.949219 513.367188 505.964844 C 478.546875 515.980469 440.703125 518.363281 420.195312 505.964844 C 399.683594 493.566406 387.757812 493.566406 370.902344 493.566406 C 354.050781 493.566406 278.207031 480.214844 251.496094 461.613281 C 224.785156 443.015625 211.90625 460.660156 172.632812 446.355469 C 133.363281 432.046875 88.046875 458.753906 69.445312 429.664062 C 50.839844 400.574219 -5.125 489.910156 -5.125 489.910156 L -6.078125 896.371094 L 613.214844 896.371094 Z M 613.214844 568.117188 " fill-opacity="1" fill-rule="nonzero"/></g><g clip-path="url(#459a282442)"><path fill="#8b8b59" d="M 613.214844 764.117188 L 613.214844 896.371094 L -6.078125 896.371094 L -4.808594 719.449219 C -4.808594 719.449219 55.132812 716.269531 88.046875 699.894531 C 120.960938 683.683594 152.601562 678.4375 176.925781 678.4375 C 219.378906 678.4375 230.507812 629.636719 282.5 629.636719 C 314.460938 629.636719 349.917969 631.542969 379.011719 621.050781 C 408.109375 610.5625 439.75 562.714844 494.605469 578.132812 C 520.679688 585.445312 550.570312 530.761719 564.882812 524.5625 C 579.191406 518.363281 613.21875 557.46875 613.21875 557.46875 L 613.21875 764.117188 Z M 613.214844 764.117188 " fill-opacity="1" fill-rule="nonzero"/></g><g clip-path="url(#9d79364809)"><path fill="#27332b" d="M 613.214844 896.371094 L -6.078125 896.371094 L -6.078125 825.953125 C -6.078125 825.953125 15.703125 799.246094 44.640625 805.605469 C 75.644531 812.597656 114.917969 804.015625 133.519531 790.820312 C 149.421875 779.695312 182.808594 752.828125 205.707031 752.828125 C 238.140625 752.828125 268.03125 735.503906 303.648438 742.019531 C 331.3125 747.109375 361.046875 705.140625 385.851562 712.136719 C 410.652344 719.128906 437.523438 659.042969 489.039062 674.144531 C 540.714844 689.246094 562.179688 635.359375 574.582031 650.460938 C 586.980469 665.5625 613.214844 629.792969 613.214844 629.792969 Z M 613.214844 896.371094 " fill-opacity="1" fill-rule="nonzero"/></g><path fill="#fdf8db" d="M 549.777344 118.261719 C 551.683594 118.261719 553.433594 116.671875 553.433594 114.605469 C 553.273438 112.699219 551.84375 110.949219 549.777344 110.949219 C 547.867188 110.949219 546.121094 112.539062 546.121094 114.605469 C 546.277344 116.671875 547.710938 118.261719 549.777344 118.261719 Z M 549.777344 118.261719 " fill-opacity="1" fill-rule="nonzero"/><path fill="#fdf8db" d="M 563.449219 255.921875 C 565.359375 255.921875 567.105469 254.332031 567.105469 252.265625 C 566.949219 250.355469 565.515625 248.609375 563.449219 248.609375 C 561.542969 248.609375 559.792969 250.199219 559.792969 252.265625 C 559.953125 254.332031 561.542969 255.921875 563.449219 255.921875 Z M 563.449219 255.921875 " fill-opacity="1" fill-rule="nonzero"/><path fill="#fdf8db" d="M 348.804688 242.089844 C 350.710938 242.089844 352.460938 240.5 352.460938 238.433594 C 352.300781 236.527344 350.871094 234.777344 348.804688 234.777344 C 346.894531 234.777344 345.148438 236.367188 345.148438 238.433594 C 345.304688 240.5 346.738281 242.089844 348.804688 242.089844 Z M 348.804688 242.089844 " fill-opacity="1" fill-rule="nonzero"/><path fill="#fdf8db" d="M 343.238281 173.421875 C 345.148438 173.421875 346.894531 171.832031 346.894531 169.765625 C 346.738281 167.855469 345.304688 166.109375 343.238281 166.109375 C 341.332031 166.109375 339.582031 167.699219 339.582031 169.765625 C 339.742188 171.671875 341.332031 173.421875 343.238281 173.421875 Z M 343.238281 173.421875 " fill-opacity="1" fill-rule="nonzero"/><path fill="#fdf8db" d="M 502.871094 247.65625 C 504.78125 247.65625 506.527344 246.066406 506.527344 244 C 506.371094 242.089844 504.9375 240.34375 502.871094 240.34375 C 500.964844 240.34375 499.214844 241.933594 499.214844 244 C 499.375 246.066406 500.964844 247.65625 502.871094 247.65625 Z M 502.871094 247.65625 " fill-opacity="1" fill-rule="nonzero"/><path fill="#fdf8db" d="M 23.972656 390.71875 C 25.878906 390.71875 27.628906 389.128906 27.628906 387.0625 C 27.46875 385.15625 26.039062 383.40625 23.972656 383.40625 C 22.0625 383.40625 20.3125 384.996094 20.3125 387.0625 C 20.472656 389.128906 22.0625 390.71875 23.972656 390.71875 Z M 23.972656 390.71875 " fill-opacity="1" fill-rule="nonzero"/><path fill="#fdf8db" d="M 32.238281 140.355469 C 34.148438 140.355469 35.894531 138.765625 35.894531 136.699219 C 35.738281 134.792969 34.304688 133.042969 32.238281 133.042969 C 30.332031 133.042969 28.582031 134.632812 28.582031 136.699219 C 28.742188 138.609375 30.332031 140.355469 32.238281 140.355469 Z M 32.238281 140.355469 " fill-opacity="1" fill-rule="nonzero"/><g clip-path="url(#843e932ea2)"><path fill="#fdf8db" d="M 425.917969 105.863281 C 427.03125 105.863281 428.144531 104.910156 428.144531 103.636719 C 428.144531 102.523438 427.1875 101.410156 425.917969 101.410156 C 424.804688 101.410156 423.691406 102.363281 423.691406 103.636719 C 423.851562 104.910156 424.644531 105.863281 425.917969 105.863281 Z M 425.917969 105.863281 " fill-opacity="1" fill-rule="nonzero"/></g><path fill="#fdf8db" d="M 224.945312 114.128906 C 226.058594 114.128906 227.171875 113.175781 227.171875 111.902344 C 227.171875 110.789062 226.214844 109.675781 224.945312 109.675781 C 223.832031 109.675781 222.71875 110.632812 222.71875 111.902344 C 222.878906 113.175781 223.671875 114.128906 224.945312 114.128906 Z M 224.945312 114.128906 " fill-opacity="1" fill-rule="nonzero"/><path fill="#fdf8db" d="M 511.140625 202.191406 C 512.253906 202.191406 513.367188 201.238281 513.367188 199.964844 C 513.367188 198.855469 512.414062 197.742188 511.140625 197.742188 C 510.027344 197.742188 508.914062 198.695312 508.914062 199.964844 C 509.074219 201.238281 510.027344 202.191406 511.140625 202.191406 Z M 511.140625 202.191406 " fill-opacity="1" fill-rule="nonzero"/><path fill="#fdf8db" d="M 558.042969 334.289062 C 559.15625 334.289062 560.269531 333.335938 560.269531 332.0625 C 560.269531 330.949219 559.316406 329.835938 558.042969 329.835938 C 556.929688 329.835938 555.820312 330.789062 555.820312 332.0625 C 555.820312 333.335938 556.773438 334.289062 558.042969 334.289062 Z M 558.042969 334.289062 " fill-opacity="1" fill-rule="nonzero"/><path fill="#fdf8db" d="M 258.015625 367.351562 C 259.128906 367.351562 260.242188 366.398438 260.242188 365.125 C 260.242188 364.011719 259.289062 362.902344 258.015625 362.902344 C 256.902344 362.902344 255.789062 363.855469 255.789062 365.125 C 255.949219 366.238281 256.742188 367.351562 258.015625 367.351562 Z M 258.015625 367.351562 " fill-opacity="1" fill-rule="nonzero"/><path fill="#fdf8db" d="M 139.5625 414.085938 C 140.675781 414.085938 141.789062 413.132812 141.789062 411.859375 C 141.789062 410.746094 140.835938 409.636719 139.5625 409.636719 C 138.449219 409.636719 137.335938 410.589844 137.335938 411.859375 C 137.496094 413.132812 138.449219 414.085938 139.5625 414.085938 Z M 139.5625 414.085938 " fill-opacity="1" fill-rule="nonzero"/><path fill="#fdf8db" d="M 40.507812 284.691406 C 41.621094 284.691406 42.734375 283.738281 42.734375 282.46875 C 42.734375 281.355469 41.777344 280.242188 40.507812 280.242188 C 39.394531 280.242188 38.28125 281.195312 38.28125 282.46875 C 38.441406 283.738281 39.394531 284.691406 40.507812 284.691406 Z M 40.507812 284.691406 " fill-opacity="1" fill-rule="nonzero"/><path fill="#fdf8db" d="M 423.054688 215.863281 C 424.167969 215.863281 425.28125 214.910156 425.28125 213.636719 C 425.28125 212.523438 424.328125 211.410156 423.054688 211.410156 C 421.941406 211.410156 420.828125 212.367188 420.828125 213.636719 C 420.988281 214.910156 421.941406 215.863281 423.054688 215.863281 Z M 423.054688 215.863281 " fill-opacity="1" fill-rule="nonzero"/><g clip-path="url(#62ba04d31b)"><path fill="#111914" d="M 445.351562 63.125 C 448.710938 62.644531 452.464844 62.566406 455.742188 59.765625 C 458.21875 57.6875 458.941406 55.367188 462.457031 53.605469 C 465.015625 52.324219 465.332031 53.125 467.492188 51.925781 C 471.328125 49.765625 470.609375 46.964844 474.207031 44.324219 C 477.480469 41.925781 479.160156 43.605469 482.039062 41.207031 C 485.234375 38.644531 483.875 36.164062 486.59375 33.445312 C 491.070312 28.886719 499.621094 30.40625 502.257812 30.804688 C 506.574219 31.605469 509.929688 33.285156 512.007812 34.644531 C 515.925781 32.644531 518.960938 32.484375 520.960938 32.644531 C 524.078125 32.886719 526.074219 34.164062 528.3125 33.046875 C 529.914062 32.246094 530.792969 30.726562 531.351562 29.363281 C 534.546875 22.003906 531.589844 15.523438 533.347656 7.765625 C 533.507812 7.042969 535.585938 -1.59375 543.179688 -6.796875 C 548.453125 -10.476562 554.128906 -10.714844 559.402344 -11.035156 C 565.796875 -11.355469 570.992188 -10.316406 574.429688 -9.355469 C 574.03125 -8.796875 580.105469 -19.195312 583.78125 -23.675781 C 592.8125 -34.476562 611.835938 -38.796875 626.0625 -34.316406 C 632.136719 -32.394531 637.328125 -28.875 645.722656 -23.035156 C 650.277344 -19.914062 653.394531 -17.117188 654.992188 -15.597656 C 657.3125 -13.4375 658.667969 -11.914062 658.667969 -11.914062 C 668.339844 -13.757812 668.820312 -13.757812 668.820312 -13.757812 C 674.414062 -14.234375 682.40625 -12.394531 687.28125 -6.636719 C 692.71875 -0.394531 693.277344 12.164062 690.640625 13.125 C 689.761719 13.445312 688.878906 9.84375 686.402344 9.765625 C 684.804688 9.683594 683.125 11.042969 682.648438 12.566406 C 681.609375 15.925781 686.242188 19.84375 687.203125 20.644531 C 691.277344 24.085938 693.835938 23.363281 699.191406 25.683594 C 709.5 30.085938 713.898438 38.726562 717.332031 36.964844 C 717.574219 36.886719 718.054688 36.246094 719.171875 34.964844 C 721.890625 31.84375 722.527344 30.40625 723.40625 29.523438 C 726.125 26.644531 733.160156 26.726562 737.472656 29.683594 C 742.507812 33.046875 740.113281 37.683594 745.945312 42.886719 C 749.464844 46.003906 750.742188 44.726562 755.777344 48.886719 C 760.09375 52.484375 763.289062 55.285156 763.289062 55.285156 C 764.488281 54.003906 766.648438 52.085938 769.765625 51.046875 C 776.558594 48.804688 782.953125 52.566406 784.628906 53.605469 C 789.265625 56.324219 788.867188 58.40625 793.902344 61.445312 C 797.097656 63.445312 799.574219 64.003906 804.691406 65.367188 C 809.007812 66.484375 815.320312 68.085938 824.433594 70.484375 C 819.476562 70.726562 812.042969 71.046875 802.851562 71.445312 C 786.226562 72.085938 784.46875 71.925781 774.558594 72.484375 C 757.617188 73.367188 748.984375 74.484375 744.027344 75.207031 C 734.757812 76.566406 735.957031 77.046875 732.28125 77.207031 C 718.214844 77.6875 711.179688 71.285156 704.546875 75.207031 C 701.589844 76.964844 702.867188 78.726562 699.109375 82.726562 C 693.757812 88.40625 686.5625 89.285156 680.410156 90.40625 C 653.875 94.964844 652.515625 101.445312 637.25 100.167969 C 630.617188 99.605469 629.257812 98.246094 624.621094 96.644531 C 624.621094 96.644531 622.144531 95.765625 618.066406 94.886719 C 610.15625 93.207031 595.210938 97.765625 583.699219 98.804688 C 580.183594 99.125 567.957031 99.925781 554.527344 94.566406 C 545.65625 91.046875 539.34375 86.085938 535.507812 82.484375 C 535.507812 82.484375 528.472656 82.566406 523.199219 80.804688 C 515.207031 78.164062 515.6875 74.804688 508.09375 71.847656 C 505.296875 70.804688 496.902344 67.207031 487.953125 69.285156 C 484.277344 70.164062 483.554688 71.207031 478.679688 72.085938 C 475.003906 72.726562 472.207031 72.644531 471.40625 72.644531 C 466.691406 72.484375 463.414062 71.367188 461.257812 70.726562 C 456.703125 69.367188 451.988281 69.445312 442.554688 69.207031 C 434.082031 69.046875 427.210938 69.765625 422.65625 70.484375 C 432.886719 65.527344 440.316406 63.765625 445.351562 63.125 Z M 445.351562 63.125 " fill-opacity="1" fill-rule="nonzero"/></g><g clip-path="url(#c05a6b23c5)"><path fill="#111914" d="M -178.304688 267.988281 C -174.949219 267.507812 -171.191406 267.429688 -167.914062 264.628906 C -165.4375 262.546875 -164.71875 260.226562 -161.203125 258.46875 C -158.644531 257.1875 -158.324219 257.988281 -156.167969 256.789062 C -152.328125 254.628906 -153.050781 251.828125 -149.453125 249.1875 C -146.175781 246.789062 -144.496094 248.46875 -141.621094 246.066406 C -138.421875 243.507812 -139.78125 241.027344 -137.0625 238.308594 C -132.589844 233.746094 -124.035156 235.269531 -121.398438 235.667969 C -117.082031 236.46875 -113.726562 238.148438 -111.648438 239.507812 C -107.730469 237.507812 -104.695312 237.347656 -102.695312 237.507812 C -99.578125 237.746094 -97.582031 239.027344 -95.34375 237.90625 C -93.746094 237.109375 -92.867188 235.585938 -92.308594 234.226562 C -89.109375 226.867188 -92.066406 220.386719 -90.308594 212.628906 C -90.148438 211.90625 -88.070312 203.265625 -80.476562 198.066406 C -75.203125 194.386719 -69.527344 194.148438 -64.253906 193.828125 C -57.859375 193.507812 -52.664062 194.546875 -49.226562 195.507812 C -49.628906 196.066406 -43.554688 185.667969 -39.875 181.1875 C -30.84375 170.386719 -11.824219 166.066406 2.402344 170.546875 C 8.476562 172.464844 13.671875 175.988281 22.0625 181.828125 C 26.621094 184.945312 29.738281 187.746094 31.335938 189.265625 C 33.652344 191.425781 35.011719 192.945312 35.011719 192.945312 C 44.683594 191.105469 45.164062 191.105469 45.164062 191.105469 C 50.757812 190.625 58.75 192.46875 63.625 198.226562 C 69.058594 204.46875 69.617188 217.027344 66.980469 217.988281 C 66.101562 218.308594 65.222656 214.707031 62.746094 214.628906 C 61.148438 214.546875 59.46875 215.90625 58.988281 217.425781 C 57.949219 220.789062 62.585938 224.707031 63.542969 225.507812 C 67.621094 228.949219 70.179688 228.226562 75.53125 230.546875 C 85.84375 234.949219 90.238281 243.589844 93.675781 241.828125 C 93.914062 241.746094 94.394531 241.109375 95.515625 239.828125 C 98.230469 236.707031 98.871094 235.269531 99.75 234.386719 C 102.46875 231.507812 109.5 231.585938 113.816406 234.546875 C 118.851562 237.90625 116.453125 242.546875 122.289062 247.746094 C 125.804688 250.867188 127.085938 249.589844 132.121094 253.75 C 136.433594 257.347656 139.632812 260.148438 139.632812 260.148438 C 140.832031 258.867188 142.988281 256.949219 146.105469 255.90625 C 152.898438 253.667969 159.292969 257.429688 160.972656 258.46875 C 165.605469 261.1875 165.207031 263.269531 170.242188 266.308594 C 173.441406 268.308594 175.917969 268.867188 181.03125 270.226562 C 185.347656 271.347656 191.664062 272.949219 200.773438 275.347656 C 195.820312 275.589844 188.386719 275.910156 179.195312 276.308594 C 162.570312 276.949219 160.8125 276.789062 150.902344 277.347656 C 133.957031 278.230469 125.324219 279.347656 120.371094 280.070312 C 111.097656 281.429688 112.296875 281.910156 108.621094 282.070312 C 94.554688 282.546875 87.523438 276.148438 80.886719 280.070312 C 77.929688 281.828125 79.210938 283.589844 75.453125 287.589844 C 70.097656 293.269531 62.90625 294.148438 56.75 295.269531 C 30.214844 299.828125 28.859375 306.308594 13.59375 305.027344 C 6.957031 304.46875 5.601562 303.109375 0.964844 301.507812 C 0.964844 301.507812 -1.511719 300.628906 -5.589844 299.75 C -13.5 298.070312 -28.449219 302.628906 -39.957031 303.667969 C -43.472656 303.988281 -55.703125 304.789062 -69.128906 299.429688 C -78 295.910156 -84.316406 290.949219 -88.152344 287.347656 C -88.152344 287.347656 -95.183594 287.429688 -100.460938 285.667969 C -108.453125 283.027344 -107.972656 279.667969 -115.566406 276.707031 C -118.363281 275.667969 -126.753906 272.070312 -135.707031 274.148438 C -139.382812 275.027344 -140.101562 276.070312 -144.976562 276.949219 C -148.652344 277.589844 -151.449219 277.507812 -152.25 277.507812 C -156.964844 277.347656 -160.242188 276.230469 -162.398438 275.589844 C -166.957031 274.226562 -171.671875 274.308594 -181.101562 274.070312 C -189.574219 273.910156 -196.449219 274.628906 -201.003906 275.347656 C -190.773438 270.386719 -183.339844 268.628906 -178.304688 267.988281 Z M -178.304688 267.988281 " fill-opacity="1" fill-rule="nonzero"/></g><g clip-path="url(#a5acc7a9d8)"><path fill="#111914" d="M 184.894531 63.585938 C 183.660156 63.410156 182.277344 63.378906 181.070312 62.347656 C 180.15625 61.578125 179.894531 60.722656 178.597656 60.074219 C 177.65625 59.601562 177.539062 59.894531 176.746094 59.453125 C 175.332031 58.65625 175.597656 57.625 174.273438 56.648438 C 173.070312 55.761719 172.449219 56.382812 171.390625 55.496094 C 170.214844 54.554688 170.714844 53.636719 169.714844 52.632812 C 168.066406 50.953125 164.921875 51.511719 163.949219 51.660156 C 162.363281 51.957031 161.125 52.574219 160.359375 53.078125 C 158.917969 52.339844 157.800781 52.28125 157.066406 52.339844 C 155.917969 52.425781 155.183594 52.898438 154.359375 52.488281 C 153.773438 52.191406 153.449219 51.628906 153.242188 51.128906 C 152.066406 48.414062 153.152344 46.023438 152.507812 43.160156 C 152.449219 42.894531 151.683594 39.703125 148.890625 37.785156 C 146.949219 36.429688 144.859375 36.339844 142.917969 36.222656 C 140.5625 36.101562 138.652344 36.488281 137.386719 36.839844 C 137.535156 37.046875 135.296875 33.210938 133.945312 31.558594 C 130.621094 27.574219 123.621094 25.976562 118.382812 27.632812 C 116.148438 28.339844 114.238281 29.640625 111.148438 31.792969 C 109.472656 32.945312 108.324219 33.976562 107.734375 34.539062 C 106.882812 35.335938 106.382812 35.898438 106.382812 35.898438 C 102.824219 35.21875 102.648438 35.21875 102.648438 35.21875 C 100.585938 35.039062 97.644531 35.71875 95.851562 37.84375 C 93.851562 40.148438 93.644531 44.78125 94.617188 45.136719 C 94.941406 45.253906 95.261719 43.925781 96.175781 43.898438 C 96.761719 43.867188 97.382812 44.367188 97.558594 44.929688 C 97.941406 46.167969 96.234375 47.617188 95.882812 47.910156 C 94.378906 49.179688 93.4375 48.914062 91.46875 49.769531 C 87.675781 51.394531 86.054688 54.582031 84.792969 53.933594 C 84.703125 53.902344 84.527344 53.667969 84.113281 53.195312 C 83.113281 52.042969 82.878906 51.511719 82.554688 51.1875 C 81.554688 50.125 78.964844 50.15625 77.378906 51.246094 C 75.523438 52.488281 76.40625 54.199219 74.261719 56.117188 C 72.964844 57.269531 72.496094 56.796875 70.640625 58.332031 C 69.054688 59.660156 67.875 60.691406 67.875 60.691406 C 67.4375 60.222656 66.640625 59.511719 65.496094 59.128906 C 62.992188 58.300781 60.640625 59.6875 60.023438 60.074219 C 58.316406 61.078125 58.464844 61.84375 56.609375 62.964844 C 55.433594 63.703125 54.523438 63.910156 52.640625 64.414062 C 51.050781 64.824219 48.726562 65.417969 45.375 66.300781 C 47.199219 66.390625 49.933594 66.507812 53.316406 66.65625 C 59.433594 66.890625 60.082031 66.832031 63.730469 67.039062 C 69.964844 67.363281 73.140625 67.777344 74.964844 68.042969 C 78.378906 68.546875 77.9375 68.722656 79.289062 68.78125 C 84.46875 68.957031 87.054688 66.597656 89.496094 68.042969 C 90.585938 68.691406 90.117188 69.34375 91.496094 70.816406 C 93.46875 72.914062 96.117188 73.238281 98.382812 73.652344 C 108.148438 75.335938 108.648438 77.726562 114.265625 77.253906 C 116.707031 77.046875 117.207031 76.546875 118.914062 75.953125 C 118.914062 75.953125 119.824219 75.628906 121.324219 75.304688 C 124.238281 74.683594 129.738281 76.367188 133.976562 76.75 C 135.269531 76.871094 139.769531 77.164062 144.710938 75.1875 C 147.976562 73.886719 150.300781 72.058594 151.710938 70.730469 C 151.710938 70.730469 154.300781 70.757812 156.242188 70.109375 C 159.183594 69.136719 159.007812 67.894531 161.800781 66.804688 C 162.832031 66.417969 165.921875 65.089844 169.214844 65.859375 C 170.570312 66.183594 170.832031 66.566406 172.628906 66.890625 C 173.980469 67.128906 175.011719 67.097656 175.304688 67.097656 C 177.039062 67.039062 178.246094 66.625 179.039062 66.390625 C 180.71875 65.886719 182.453125 65.917969 185.921875 65.828125 C 189.042969 65.769531 191.570312 66.035156 193.25 66.300781 C 189.484375 64.472656 186.746094 63.820312 184.894531 63.585938 Z M 184.894531 63.585938 " fill-opacity="1" fill-rule="nonzero"/></g><g clip-path="url(#894fa360bd)"><path fill="#111914" d="M 673.128906 292.375 C 671.894531 292.199219 670.511719 292.167969 669.304688 291.136719 C 668.390625 290.367188 668.128906 289.511719 666.832031 288.863281 C 665.890625 288.390625 665.773438 288.6875 664.980469 288.242188 C 663.566406 287.445312 663.832031 286.414062 662.507812 285.4375 C 661.304688 284.554688 660.683594 285.171875 659.625 284.289062 C 658.449219 283.34375 658.949219 282.425781 657.949219 281.425781 C 656.300781 279.742188 653.15625 280.300781 652.183594 280.449219 C 650.59375 280.746094 649.359375 281.363281 648.59375 281.867188 C 647.152344 281.128906 646.035156 281.070312 645.300781 281.128906 C 644.152344 281.21875 643.417969 281.691406 642.59375 281.277344 C 642.007812 280.980469 641.683594 280.421875 641.476562 279.917969 C 640.300781 277.203125 641.386719 274.8125 640.742188 271.949219 C 640.683594 271.683594 639.917969 268.496094 637.121094 266.574219 C 635.179688 265.21875 633.09375 265.128906 631.152344 265.011719 C 628.796875 264.894531 626.886719 265.277344 625.621094 265.632812 C 625.769531 265.835938 623.53125 262 622.179688 260.347656 C 618.855469 256.363281 611.855469 254.769531 606.617188 256.421875 C 604.382812 257.128906 602.472656 258.429688 599.382812 260.582031 C 597.707031 261.734375 596.558594 262.769531 595.96875 263.328125 C 595.117188 264.125 594.617188 264.6875 594.617188 264.6875 C 591.058594 264.007812 590.878906 264.007812 590.878906 264.007812 C 588.820312 263.832031 585.878906 264.507812 584.085938 266.632812 C 582.085938 268.9375 581.878906 273.570312 582.851562 273.925781 C 583.171875 274.042969 583.496094 272.714844 584.410156 272.6875 C 584.996094 272.65625 585.617188 273.160156 585.792969 273.71875 C 586.175781 274.960938 584.46875 276.40625 584.113281 276.699219 C 582.613281 277.96875 581.671875 277.703125 579.703125 278.558594 C 575.90625 280.183594 574.289062 283.371094 573.023438 282.722656 C 572.9375 282.691406 572.761719 282.457031 572.347656 281.984375 C 571.347656 280.832031 571.113281 280.300781 570.789062 279.976562 C 569.789062 278.914062 567.199219 278.945312 565.613281 280.035156 C 563.757812 281.277344 564.640625 282.988281 562.496094 284.90625 C 561.199219 286.058594 560.730469 285.585938 558.875 287.121094 C 557.289062 288.449219 556.109375 289.484375 556.109375 289.484375 C 555.667969 289.011719 554.875 288.300781 553.726562 287.917969 C 551.226562 287.089844 548.875 288.480469 548.257812 288.863281 C 546.550781 289.867188 546.699219 290.632812 544.84375 291.753906 C 543.667969 292.492188 542.757812 292.699219 540.875 293.203125 C 539.285156 293.617188 536.960938 294.207031 533.609375 295.089844 C 535.429688 295.179688 538.167969 295.296875 541.550781 295.445312 C 547.667969 295.683594 548.316406 295.621094 551.964844 295.828125 C 558.199219 296.152344 561.375 296.566406 563.199219 296.832031 C 566.613281 297.335938 566.171875 297.511719 567.523438 297.570312 C 572.703125 297.75 575.289062 295.386719 577.730469 296.832031 C 578.820312 297.484375 578.347656 298.132812 579.730469 299.609375 C 581.703125 301.703125 584.351562 302.027344 586.617188 302.441406 C 596.382812 304.125 596.882812 306.515625 602.5 306.042969 C 604.941406 305.835938 605.441406 305.335938 607.148438 304.746094 C 607.148438 304.746094 608.058594 304.417969 609.558594 304.09375 C 612.472656 303.476562 617.972656 305.15625 622.207031 305.542969 C 623.503906 305.660156 628.003906 305.953125 632.945312 303.976562 C 636.210938 302.679688 638.535156 300.847656 639.945312 299.519531 C 639.945312 299.519531 642.535156 299.546875 644.476562 298.898438 C 647.417969 297.925781 647.242188 296.683594 650.035156 295.59375 C 651.066406 295.210938 654.15625 293.882812 657.449219 294.648438 C 658.800781 294.972656 659.066406 295.355469 660.863281 295.683594 C 662.214844 295.917969 663.246094 295.886719 663.539062 295.886719 C 665.273438 295.828125 666.480469 295.417969 667.273438 295.179688 C 668.949219 294.679688 670.6875 294.707031 674.15625 294.617188 C 677.277344 294.558594 679.804688 294.824219 681.480469 295.089844 C 677.71875 293.261719 674.980469 292.613281 673.128906 292.375 Z M 673.128906 292.375 " fill-opacity="1" fill-rule="nonzero"/></g></svg>