<svg xmlns="http://www.w3.org/2000/svg" xmlns:xlink="http://www.w3.org/1999/xlink" width="793" zoomAndPan="magnify" viewBox="0 0 595.5 842.249979" height="1122" preserveAspectRatio="xMidYMid meet" version="1.0"><defs><clipPath id="28e10ca787"><path d="M 0.015625 0 L 594.984375 0 L 594.984375 841.5 L 0.015625 841.5 Z M 0.015625 0 " clip-rule="nonzero"/></clipPath><clipPath id="c873684819"><path d="M 4.445312 288 L 590.914062 288 L 590.914062 838.371094 L 4.445312 838.371094 Z M 4.445312 288 " clip-rule="nonzero"/></clipPath><clipPath id="941331f2cb"><path d="M 5 391 L 590.914062 391 L 590.914062 838.371094 L 5 838.371094 Z M 5 391 " clip-rule="nonzero"/></clipPath><clipPath id="1616a6b71c"><path d="M 5 486 L 590.914062 486 L 590.914062 838.371094 L 5 838.371094 Z M 5 486 " clip-rule="nonzero"/></clipPath><clipPath id="241e537ce8"><path d="M 5 586 L 590.914062 586 L 590.914062 838.371094 L 5 838.371094 Z M 5 586 " clip-rule="nonzero"/></clipPath><clipPath id="4827db4a5f"><path d="M 411 86.90625 L 416 86.90625 L 416 92 L 411 92 Z M 411 86.90625 " clip-rule="nonzero"/></clipPath><clipPath id="a359ba02f7"><path d="M 110.128906 240 L 290 240 L 290 301 L 110.128906 301 Z M 110.128906 240 " clip-rule="nonzero"/></clipPath><clipPath id="cd37b88c69"><path d="M 145.371094 87 L 293.675781 87 L 293.675781 138.65625 L 145.371094 138.65625 Z M 145.371094 87 " clip-rule="nonzero"/></clipPath><clipPath id="8931465b2e"><path d="M 413.117188 211 L 561.421875 211 L 561.421875 261.890625 L 413.117188 261.890625 Z M 413.117188 211 " clip-rule="nonzero"/></clipPath></defs><g clip-path="url(#28e10ca787)"><path fill="#ffffff" d="M 0.015625 0 L 595.484375 0 L 595.484375 848.957031 L 0.015625 848.957031 Z M 0.015625 0 " fill-opacity="1" fill-rule="nonzero"/><path fill="#ffffff" d="M 0.015625 0 L 595.484375 0 L 595.484375 842.207031 L 0.015625 842.207031 Z M 0.015625 0 " fill-opacity="1" fill-rule="nonzero"/><path fill="#16201a" d="M 0.015625 0 L 595.484375 0 L 595.484375 842.207031 L 0.015625 842.207031 Z M 0.015625 0 " fill-opacity="1" fill-rule="nonzero"/></g><path fill="#fdf8db" d="M 154.023438 234.917969 C 121.699219 199.753906 117.488281 148.515625 140.339844 109.296875 C 130.871094 113.804688 121.847656 119.664062 113.730469 127.179688 C 70.429688 166.996094 67.421875 234.316406 107.265625 277.742188 C 147.105469 321.167969 214.613281 324.023438 257.914062 284.203125 C 266.03125 276.6875 272.796875 268.273438 278.058594 259.257812 C 237.015625 278.640625 186.347656 270.078125 154.023438 234.917969 Z M 154.023438 234.917969 " fill-opacity="1" fill-rule="nonzero"/><g clip-path="url(#c873684819)"><path fill="#edc99d" d="M 590.632812 385.929688 C 590.632812 385.929688 566.726562 345.660156 544.925781 347.613281 C 523.125 349.566406 512 347.613281 490.199219 323.722656 C 468.398438 299.828125 429.609375 293.96875 417.882812 289.460938 C 406.15625 284.953125 397.585938 292.765625 368.117188 307.644531 C 338.800781 322.519531 319.707031 344.15625 298.054688 350.617188 C 276.40625 357.078125 245.132812 355.125 227.542969 370 C 209.953125 384.878906 158.382812 401.105469 142.597656 409.519531 C 126.808594 417.9375 4.726562 470.828125 4.726562 470.828125 L 4.726562 838.371094 L 590.332031 838.371094 L 590.332031 385.929688 Z M 590.632812 385.929688 " fill-opacity="1" fill-rule="nonzero"/></g><g clip-path="url(#941331f2cb)"><path fill="#e2aa6d" d="M 590.632812 528.078125 C 590.632812 528.078125 529.140625 459.859375 496.214844 469.324219 C 463.289062 478.792969 427.503906 481.046875 408.109375 469.324219 C 388.714844 457.605469 377.4375 457.605469 361.503906 457.605469 C 345.566406 457.605469 273.851562 444.984375 248.589844 427.402344 C 223.332031 409.820312 211.15625 426.5 174.019531 412.976562 C 136.882812 399.453125 94.035156 424.699219 76.445312 397.199219 C 58.851562 369.703125 5.929688 454.148438 5.929688 454.148438 L 5.027344 838.371094 L 590.632812 838.371094 Z M 590.632812 528.078125 " fill-opacity="1" fill-rule="nonzero"/></g><g clip-path="url(#1616a6b71c)"><path fill="#8b8b59" d="M 590.632812 713.351562 L 590.632812 838.371094 L 5.027344 838.371094 L 6.230469 671.128906 C 6.230469 671.128906 62.914062 668.121094 94.035156 652.644531 C 125.15625 637.320312 155.074219 632.359375 178.078125 632.359375 C 218.222656 632.359375 228.746094 586.230469 277.910156 586.230469 C 308.128906 586.230469 341.65625 588.03125 369.171875 578.117188 C 396.683594 568.199219 426.601562 522.96875 478.472656 537.542969 C 503.128906 544.457031 531.394531 492.765625 544.925781 486.90625 C 558.457031 481.046875 590.632812 518.011719 590.632812 518.011719 Z M 590.632812 713.351562 " fill-opacity="1" fill-rule="nonzero"/></g><g clip-path="url(#241e537ce8)"><path fill="#27332b" d="M 590.632812 838.371094 L 5.027344 838.371094 L 5.027344 771.804688 C 5.027344 771.804688 25.625 746.558594 52.988281 752.570312 C 82.308594 759.179688 119.441406 751.066406 137.035156 738.59375 C 152.070312 728.078125 183.640625 702.683594 205.292969 702.683594 C 235.960938 702.683594 264.226562 686.304688 297.90625 692.464844 C 324.066406 697.273438 352.179688 657.605469 375.636719 664.214844 C 399.089844 670.828125 424.496094 614.027344 473.210938 628.304688 C 522.074219 642.578125 542.371094 591.640625 554.097656 605.914062 C 565.824219 620.1875 590.632812 586.378906 590.632812 586.378906 Z M 590.632812 838.371094 " fill-opacity="1" fill-rule="nonzero"/></g><path fill="#fdf8db" d="M 530.644531 102.835938 C 532.445312 102.835938 534.101562 101.332031 534.101562 99.378906 C 533.949219 97.578125 532.597656 95.921875 530.644531 95.921875 C 528.839844 95.921875 527.183594 97.425781 527.183594 99.378906 C 527.335938 101.332031 528.6875 102.835938 530.644531 102.835938 Z M 530.644531 102.835938 " fill-opacity="1" fill-rule="nonzero"/><path fill="#fdf8db" d="M 543.574219 232.960938 C 545.378906 232.960938 547.03125 231.460938 547.03125 229.507812 C 546.878906 227.703125 545.527344 226.050781 543.574219 226.050781 C 541.769531 226.050781 540.113281 227.554688 540.113281 229.507812 C 540.265625 231.460938 541.769531 232.960938 543.574219 232.960938 Z M 543.574219 232.960938 " fill-opacity="1" fill-rule="nonzero"/><path fill="#fdf8db" d="M 340.605469 219.890625 C 342.40625 219.890625 344.0625 218.386719 344.0625 216.433594 C 343.910156 214.628906 342.558594 212.976562 340.605469 212.976562 C 338.800781 212.976562 337.144531 214.480469 337.144531 216.433594 C 337.296875 218.386719 338.648438 219.890625 340.605469 219.890625 Z M 340.605469 219.890625 " fill-opacity="1" fill-rule="nonzero"/><path fill="#fdf8db" d="M 335.34375 154.976562 C 337.144531 154.976562 338.800781 153.472656 338.800781 151.519531 C 338.648438 149.71875 337.296875 148.066406 335.34375 148.066406 C 333.539062 148.066406 331.882812 149.566406 331.882812 151.519531 C 332.035156 153.324219 333.539062 154.976562 335.34375 154.976562 Z M 335.34375 154.976562 " fill-opacity="1" fill-rule="nonzero"/><path fill="#fdf8db" d="M 486.289062 225.148438 C 488.09375 225.148438 489.75 223.644531 489.75 221.691406 C 489.597656 219.890625 488.246094 218.238281 486.289062 218.238281 C 484.484375 218.238281 482.832031 219.738281 482.832031 221.691406 C 482.984375 223.644531 484.488281 225.148438 486.289062 225.148438 Z M 486.289062 225.148438 " fill-opacity="1" fill-rule="nonzero"/><path fill="#fdf8db" d="M 33.445312 360.386719 C 35.25 360.386719 36.902344 358.882812 36.902344 356.929688 C 36.753906 355.125 35.398438 353.472656 33.445312 353.472656 C 31.640625 353.472656 29.988281 354.976562 29.988281 356.929688 C 30.136719 358.882812 31.640625 360.386719 33.445312 360.386719 Z M 33.445312 360.386719 " fill-opacity="1" fill-rule="nonzero"/><path fill="#fdf8db" d="M 41.261719 123.722656 C 43.066406 123.722656 44.71875 122.21875 44.71875 120.265625 C 44.570312 118.460938 43.21875 116.808594 41.261719 116.808594 C 39.457031 116.808594 37.804688 118.3125 37.804688 120.265625 C 37.953125 122.070312 39.457031 123.722656 41.261719 123.722656 Z M 41.261719 123.722656 " fill-opacity="1" fill-rule="nonzero"/><g clip-path="url(#4827db4a5f)"><path fill="#fdf8db" d="M 413.523438 91.113281 C 414.574219 91.113281 415.628906 90.214844 415.628906 89.011719 C 415.628906 87.960938 414.726562 86.90625 413.523438 86.90625 C 412.46875 86.90625 411.417969 87.808594 411.417969 89.011719 C 411.566406 90.214844 412.320312 91.113281 413.523438 91.113281 Z M 413.523438 91.113281 " fill-opacity="1" fill-rule="nonzero"/></g><path fill="#fdf8db" d="M 223.484375 98.929688 C 224.535156 98.929688 225.589844 98.027344 225.589844 96.824219 C 225.589844 95.773438 224.6875 94.722656 223.484375 94.722656 C 222.429688 94.722656 221.378906 95.621094 221.378906 96.824219 C 221.527344 98.027344 222.28125 98.929688 223.484375 98.929688 Z M 223.484375 98.929688 " fill-opacity="1" fill-rule="nonzero"/><path fill="#fdf8db" d="M 494.109375 182.175781 C 495.160156 182.175781 496.214844 181.273438 496.214844 180.070312 C 496.214844 179.019531 495.3125 177.964844 494.109375 177.964844 C 493.054688 177.964844 492.003906 178.867188 492.003906 180.070312 C 492.152344 181.273438 493.054688 182.175781 494.109375 182.175781 Z M 494.109375 182.175781 " fill-opacity="1" fill-rule="nonzero"/><path fill="#fdf8db" d="M 538.460938 307.042969 C 539.511719 307.042969 540.566406 306.140625 540.566406 304.9375 C 540.566406 303.886719 539.664062 302.835938 538.460938 302.835938 C 537.410156 302.835938 536.355469 303.734375 536.355469 304.9375 C 536.355469 306.140625 537.257812 307.042969 538.460938 307.042969 Z M 538.460938 307.042969 " fill-opacity="1" fill-rule="nonzero"/><path fill="#fdf8db" d="M 254.753906 338.296875 C 255.808594 338.296875 256.859375 337.394531 256.859375 336.191406 C 256.859375 335.140625 255.957031 334.089844 254.753906 334.089844 C 253.703125 334.089844 252.652344 334.992188 252.652344 336.191406 C 252.800781 337.246094 253.554688 338.296875 254.753906 338.296875 Z M 254.753906 338.296875 " fill-opacity="1" fill-rule="nonzero"/><path fill="#fdf8db" d="M 142.746094 382.472656 C 143.800781 382.472656 144.851562 381.570312 144.851562 380.371094 C 144.851562 379.316406 143.949219 378.265625 142.746094 378.265625 C 141.695312 378.265625 140.640625 379.167969 140.640625 380.371094 C 140.792969 381.570312 141.695312 382.472656 142.746094 382.472656 Z M 142.746094 382.472656 " fill-opacity="1" fill-rule="nonzero"/><path fill="#fdf8db" d="M 49.082031 260.160156 C 50.132812 260.160156 51.183594 259.257812 51.183594 258.054688 C 51.183594 257.003906 50.285156 255.953125 49.082031 255.953125 C 48.027344 255.953125 46.976562 256.855469 46.976562 258.054688 C 47.125 259.257812 48.027344 260.160156 49.082031 260.160156 Z M 49.082031 260.160156 " fill-opacity="1" fill-rule="nonzero"/><path fill="#fdf8db" d="M 410.816406 195.097656 C 411.867188 195.097656 412.921875 194.195312 412.921875 192.992188 C 412.921875 191.941406 412.019531 190.890625 410.816406 190.890625 C 409.765625 190.890625 408.710938 191.789062 408.710938 192.992188 C 408.863281 194.195312 409.765625 195.097656 410.816406 195.097656 Z M 410.816406 195.097656 " fill-opacity="1" fill-rule="nonzero"/><path fill="#111914" d="M 341.933594 128.570312 C 344.128906 128.253906 346.585938 128.203125 348.730469 126.375 C 350.351562 125.019531 350.824219 123.503906 353.125 122.359375 C 354.796875 121.523438 355.003906 122.042969 356.417969 121.261719 C 358.925781 119.851562 358.457031 118.023438 360.808594 116.304688 C 362.953125 114.738281 364.050781 115.832031 365.933594 114.265625 C 368.027344 112.597656 367.136719 110.980469 368.914062 109.203125 C 371.84375 106.230469 377.4375 107.222656 379.164062 107.480469 C 381.988281 108.003906 384.183594 109.101562 385.542969 109.988281 C 388.105469 108.683594 390.09375 108.578125 391.402344 108.683594 C 393.441406 108.839844 394.746094 109.675781 396.210938 108.945312 C 397.257812 108.421875 397.832031 107.429688 398.199219 106.542969 C 400.289062 101.742188 398.355469 97.511719 399.503906 92.449219 C 399.609375 91.980469 400.96875 86.34375 405.9375 82.953125 C 409.390625 80.550781 413.101562 80.394531 416.550781 80.183594 C 420.734375 79.976562 424.136719 80.65625 426.382812 81.28125 C 426.121094 81.644531 430.097656 74.859375 432.5 71.9375 C 438.410156 64.890625 450.855469 62.074219 460.164062 64.996094 C 464.136719 66.25 467.535156 68.546875 473.027344 72.355469 C 476.007812 74.390625 478.046875 76.21875 479.09375 77.210938 C 480.609375 78.621094 481.5 79.609375 481.5 79.609375 C 487.824219 78.410156 488.140625 78.410156 488.140625 78.410156 C 491.800781 78.097656 497.027344 79.296875 500.21875 83.054688 C 503.773438 87.125 504.140625 95.320312 502.414062 95.949219 C 501.839844 96.15625 501.265625 93.808594 499.644531 93.753906 C 498.597656 93.703125 497.5 94.589844 497.1875 95.582031 C 496.507812 97.773438 499.539062 100.332031 500.167969 100.855469 C 502.832031 103.097656 504.507812 102.628906 508.011719 104.140625 C 514.753906 107.011719 517.632812 112.648438 519.878906 111.5 C 520.039062 111.449219 520.351562 111.03125 521.082031 110.195312 C 522.859375 108.160156 523.28125 107.222656 523.855469 106.648438 C 525.632812 104.769531 530.234375 104.820312 533.058594 106.75 C 536.351562 108.945312 534.785156 111.972656 538.601562 115.363281 C 540.902344 117.398438 541.738281 116.5625 545.03125 119.277344 C 547.855469 121.625 549.949219 123.453125 549.949219 123.453125 C 550.730469 122.617188 552.144531 121.367188 554.183594 120.6875 C 558.628906 119.226562 562.8125 121.679688 563.910156 122.359375 C 566.941406 124.132812 566.679688 125.488281 569.976562 127.472656 C 572.066406 128.777344 573.6875 129.144531 577.035156 130.03125 C 579.859375 130.761719 583.988281 131.804688 589.949219 133.371094 C 586.707031 133.527344 581.84375 133.734375 575.832031 133.996094 C 564.957031 134.414062 563.804688 134.308594 557.320312 134.675781 C 546.234375 135.25 540.585938 135.980469 537.347656 136.449219 C 531.28125 137.335938 532.0625 137.648438 529.660156 137.753906 C 520.457031 138.066406 515.855469 133.890625 511.515625 136.449219 C 509.578125 137.597656 510.414062 138.746094 507.957031 141.355469 C 504.453125 145.0625 499.75 145.636719 495.722656 146.367188 C 478.359375 149.339844 477.472656 153.570312 467.484375 152.734375 C 463.144531 152.367188 462.253906 151.480469 459.222656 150.4375 C 459.222656 150.4375 457.601562 149.863281 454.933594 149.289062 C 449.757812 148.191406 439.980469 151.167969 432.449219 151.847656 C 430.148438 152.054688 422.148438 152.578125 413.363281 149.082031 C 407.558594 146.785156 403.425781 143.546875 400.917969 141.199219 C 400.917969 141.199219 396.316406 141.25 392.863281 140.101562 C 387.636719 138.378906 387.949219 136.1875 382.980469 134.257812 C 381.152344 133.578125 375.660156 131.230469 369.804688 132.585938 C 367.398438 133.160156 366.929688 133.839844 363.738281 134.414062 C 361.332031 134.832031 359.503906 134.78125 358.980469 134.78125 C 355.894531 134.675781 353.75 133.945312 352.339844 133.527344 C 349.359375 132.640625 346.273438 132.691406 340.101562 132.535156 C 334.558594 132.429688 330.0625 132.902344 327.082031 133.371094 C 333.777344 130.132812 338.636719 128.984375 341.933594 128.570312 Z M 341.933594 128.570312 " fill-opacity="1" fill-rule="nonzero"/><g clip-path="url(#a359ba02f7)"><path fill="#111914" d="M 120.640625 284.425781 C 122.136719 284.214844 123.8125 284.175781 125.273438 282.933594 C 126.378906 282.011719 126.699219 280.980469 128.269531 280.199219 C 129.410156 279.632812 129.550781 279.988281 130.515625 279.453125 C 132.226562 278.496094 131.90625 277.253906 133.507812 276.082031 C 134.972656 275.015625 135.71875 275.761719 137.003906 274.695312 C 138.429688 273.558594 137.824219 272.460938 139.035156 271.253906 C 141.03125 269.226562 144.847656 269.902344 146.023438 270.082031 C 147.949219 270.4375 149.445312 271.179688 150.375 271.785156 C 152.121094 270.898438 153.476562 270.824219 154.367188 270.898438 C 155.757812 271.003906 156.648438 271.570312 157.644531 271.074219 C 158.359375 270.71875 158.75 270.046875 159 269.441406 C 160.425781 266.175781 159.109375 263.296875 159.890625 259.855469 C 159.964844 259.535156 160.890625 255.699219 164.277344 253.390625 C 166.628906 251.757812 169.160156 251.652344 171.515625 251.507812 C 174.367188 251.367188 176.683594 251.828125 178.21875 252.253906 C 178.039062 252.503906 180.75 247.886719 182.390625 245.898438 C 186.417969 241.105469 194.902344 239.1875 201.25 241.175781 C 203.957031 242.027344 206.277344 243.589844 210.019531 246.183594 C 212.050781 247.566406 213.441406 248.8125 214.15625 249.484375 C 215.1875 250.445312 215.796875 251.117188 215.796875 251.117188 C 220.109375 250.300781 220.324219 250.300781 220.324219 250.300781 C 222.820312 250.089844 226.382812 250.90625 228.558594 253.460938 C 230.984375 256.230469 231.234375 261.808594 230.054688 262.234375 C 229.664062 262.375 229.273438 260.777344 228.167969 260.742188 C 227.453125 260.707031 226.703125 261.308594 226.492188 261.984375 C 226.027344 263.476562 228.09375 265.214844 228.523438 265.570312 C 230.339844 267.097656 231.484375 266.777344 233.871094 267.808594 C 238.46875 269.761719 240.429688 273.597656 241.964844 272.816406 C 242.070312 272.777344 242.285156 272.496094 242.785156 271.925781 C 243.996094 270.542969 244.28125 269.902344 244.671875 269.511719 C 245.886719 268.234375 249.023438 268.269531 250.949219 269.582031 C 253.195312 271.074219 252.125 273.132812 254.726562 275.441406 C 256.296875 276.828125 256.867188 276.257812 259.113281 278.105469 C 261.039062 279.703125 262.464844 280.945312 262.464844 280.945312 C 263 280.378906 263.960938 279.527344 265.351562 279.0625 C 268.382812 278.070312 271.234375 279.738281 271.984375 280.199219 C 274.050781 281.40625 273.875 282.332031 276.121094 283.679688 C 277.546875 284.566406 278.652344 284.816406 280.933594 285.421875 C 282.859375 285.917969 285.675781 286.628906 289.738281 287.691406 C 287.527344 287.800781 284.210938 287.941406 280.113281 288.117188 C 272.695312 288.402344 271.914062 288.332031 267.492188 288.582031 C 259.933594 288.972656 256.082031 289.46875 253.871094 289.789062 C 249.738281 290.390625 250.269531 290.605469 248.632812 290.675781 C 242.355469 290.886719 239.21875 288.046875 236.261719 289.789062 C 234.941406 290.570312 235.511719 291.351562 233.835938 293.125 C 231.445312 295.648438 228.238281 296.039062 225.492188 296.535156 C 213.65625 298.558594 213.050781 301.433594 206.242188 300.867188 C 203.28125 300.617188 202.675781 300.015625 200.609375 299.304688 C 200.609375 299.304688 199.503906 298.914062 197.683594 298.523438 C 194.15625 297.777344 187.488281 299.800781 182.351562 300.261719 C 180.785156 300.40625 175.328125 300.761719 169.339844 298.382812 C 165.382812 296.820312 162.566406 294.617188 160.855469 293.019531 C 160.855469 293.019531 157.71875 293.054688 155.363281 292.273438 C 151.800781 291.101562 152.011719 289.609375 148.625 288.296875 C 147.378906 287.835938 143.636719 286.238281 139.640625 287.160156 C 138 287.550781 137.679688 288.011719 135.507812 288.402344 C 133.867188 288.6875 132.617188 288.652344 132.261719 288.652344 C 130.160156 288.582031 128.695312 288.082031 127.734375 287.800781 C 125.703125 287.195312 123.597656 287.230469 119.390625 287.125 C 115.613281 287.054688 112.546875 287.375 110.515625 287.691406 C 115.078125 285.492188 118.394531 284.710938 120.640625 284.425781 Z M 120.640625 284.425781 " fill-opacity="1" fill-rule="nonzero"/></g><g clip-path="url(#cd37b88c69)"><path fill="#111914" d="M 285.015625 124.515625 C 283.777344 124.339844 282.394531 124.308594 281.191406 123.277344 C 280.277344 122.507812 280.011719 121.652344 278.71875 121.003906 C 277.777344 120.53125 277.660156 120.824219 276.867188 120.382812 C 275.453125 119.585938 275.71875 118.550781 274.394531 117.578125 C 273.1875 116.691406 272.570312 117.3125 271.511719 116.425781 C 270.335938 115.484375 270.835938 114.566406 269.835938 113.5625 C 268.1875 111.882812 265.039062 112.441406 264.070312 112.589844 C 262.480469 112.882812 261.246094 113.503906 260.480469 114.007812 C 259.039062 113.269531 257.921875 113.210938 257.1875 113.269531 C 256.039062 113.355469 255.304688 113.828125 254.480469 113.417969 C 253.890625 113.121094 253.570312 112.558594 253.363281 112.058594 C 252.1875 109.34375 253.273438 106.953125 252.628906 104.089844 C 252.570312 103.824219 251.804688 100.632812 249.007812 98.714844 C 247.066406 97.359375 244.980469 97.269531 243.039062 97.152344 C 240.683594 97.03125 238.773438 97.417969 237.507812 97.769531 C 237.65625 97.976562 235.417969 94.140625 234.066406 92.488281 C 230.742188 88.5 223.742188 86.90625 218.503906 88.5625 C 216.269531 89.269531 214.355469 90.566406 211.269531 92.722656 C 209.589844 93.875 208.445312 94.90625 207.855469 95.46875 C 207.003906 96.265625 206.503906 96.828125 206.503906 96.828125 C 202.945312 96.148438 202.765625 96.148438 202.765625 96.148438 C 200.707031 95.96875 197.765625 96.648438 195.972656 98.773438 C 193.972656 101.078125 193.765625 105.710938 194.738281 106.066406 C 195.058594 106.183594 195.382812 104.855469 196.296875 104.824219 C 196.882812 104.796875 197.5 105.296875 197.679688 105.859375 C 198.058594 107.097656 196.355469 108.546875 196 108.839844 C 194.5 110.109375 193.558594 109.84375 191.589844 110.699219 C 187.792969 112.324219 186.175781 115.511719 184.910156 114.863281 C 184.824219 114.832031 184.648438 114.597656 184.234375 114.125 C 183.234375 112.972656 183 112.441406 182.675781 112.117188 C 181.675781 111.054688 179.085938 111.085938 177.5 112.175781 C 175.644531 113.417969 176.527344 115.128906 174.378906 117.046875 C 173.085938 118.199219 172.617188 117.726562 170.761719 119.261719 C 169.171875 120.589844 167.996094 121.621094 167.996094 121.621094 C 167.554688 121.148438 166.761719 120.441406 165.613281 120.058594 C 163.113281 119.230469 160.761719 120.617188 160.144531 121.003906 C 158.4375 122.007812 158.585938 122.773438 156.730469 123.894531 C 155.554688 124.632812 154.640625 124.839844 152.757812 125.34375 C 151.171875 125.753906 148.847656 126.34375 145.492188 127.230469 C 147.316406 127.320312 150.054688 127.4375 153.4375 127.585938 C 159.554688 127.820312 160.203125 127.761719 163.847656 127.96875 C 170.085938 128.292969 173.261719 128.707031 175.085938 128.972656 C 178.5 129.472656 178.058594 129.652344 179.410156 129.710938 C 184.585938 129.886719 187.175781 127.527344 189.617188 128.972656 C 190.707031 129.621094 190.234375 130.273438 191.617188 131.746094 C 193.589844 133.84375 196.238281 134.167969 198.5 134.582031 C 208.269531 136.265625 208.769531 138.65625 214.386719 138.183594 C 216.828125 137.976562 217.328125 137.472656 219.035156 136.882812 C 219.035156 136.882812 219.945312 136.558594 221.445312 136.234375 C 224.359375 135.613281 229.859375 137.296875 234.09375 137.679688 C 235.390625 137.800781 239.890625 138.09375 244.832031 136.117188 C 248.097656 134.816406 250.421875 132.988281 251.832031 131.660156 C 251.832031 131.660156 254.421875 131.6875 256.363281 131.039062 C 259.304688 130.066406 259.128906 128.824219 261.921875 127.734375 C 262.953125 127.347656 266.039062 126.019531 269.335938 126.789062 C 270.6875 127.113281 270.953125 127.496094 272.746094 127.820312 C 274.101562 128.058594 275.128906 128.027344 275.425781 128.027344 C 277.160156 127.96875 278.367188 127.554688 279.160156 127.320312 C 280.835938 126.816406 282.574219 126.847656 286.042969 126.757812 C 289.160156 126.699219 291.691406 126.964844 293.367188 127.230469 C 289.601562 125.402344 286.867188 124.75 285.015625 124.515625 Z M 285.015625 124.515625 " fill-opacity="1" fill-rule="nonzero"/></g><g clip-path="url(#8931465b2e)"><path fill="#111914" d="M 552.757812 247.753906 C 551.523438 247.574219 550.140625 247.546875 548.933594 246.511719 C 548.023438 245.746094 547.757812 244.890625 546.464844 244.238281 C 545.523438 243.765625 545.40625 244.0625 544.609375 243.621094 C 543.199219 242.824219 543.464844 241.789062 542.140625 240.816406 C 540.933594 239.929688 540.316406 240.550781 539.257812 239.664062 C 538.082031 238.71875 538.582031 237.804688 537.582031 236.800781 C 535.933594 235.117188 532.785156 235.679688 531.816406 235.828125 C 530.226562 236.121094 528.992188 236.742188 528.226562 237.242188 C 526.785156 236.503906 525.667969 236.445312 524.929688 236.503906 C 523.785156 236.59375 523.046875 237.066406 522.226562 236.652344 C 521.636719 236.359375 521.3125 235.796875 521.105469 235.296875 C 519.929688 232.578125 521.019531 230.1875 520.371094 227.324219 C 520.3125 227.058594 519.546875 223.871094 516.753906 221.953125 C 514.8125 220.59375 512.722656 220.507812 510.78125 220.386719 C 508.429688 220.269531 506.515625 220.652344 505.25 221.007812 C 505.398438 221.214844 503.164062 217.378906 501.808594 215.722656 C 498.484375 211.738281 491.484375 210.144531 486.25 211.796875 C 484.011719 212.507812 482.101562 213.804688 479.011719 215.960938 C 477.335938 217.113281 476.1875 218.144531 475.601562 218.707031 C 474.746094 219.503906 474.246094 220.0625 474.246094 220.0625 C 470.6875 219.382812 470.511719 219.382812 470.511719 219.382812 C 468.453125 219.207031 465.511719 219.886719 463.714844 222.011719 C 461.714844 224.3125 461.511719 228.949219 462.480469 229.304688 C 462.804688 229.421875 463.128906 228.09375 464.039062 228.0625 C 464.628906 228.035156 465.246094 228.535156 465.421875 229.097656 C 465.804688 230.335938 464.097656 231.78125 463.746094 232.078125 C 462.246094 233.347656 461.304688 233.082031 459.332031 233.9375 C 455.539062 235.5625 453.921875 238.75 452.65625 238.101562 C 452.566406 238.070312 452.390625 237.835938 451.980469 237.363281 C 450.980469 236.210938 450.742188 235.679688 450.421875 235.355469 C 449.421875 234.292969 446.832031 234.320312 445.242188 235.414062 C 443.390625 236.652344 444.273438 238.367188 442.125 240.285156 C 440.832031 241.433594 440.359375 240.964844 438.507812 242.5 C 436.917969 243.828125 435.742188 244.859375 435.742188 244.859375 C 435.300781 244.386719 434.507812 243.679688 433.359375 243.296875 C 430.859375 242.46875 428.503906 243.855469 427.886719 244.238281 C 426.179688 245.242188 426.328125 246.011719 424.476562 247.132812 C 423.296875 247.871094 422.386719 248.078125 420.503906 248.578125 C 418.914062 248.992188 416.59375 249.582031 413.238281 250.46875 C 415.0625 250.558594 417.796875 250.675781 421.179688 250.824219 C 427.300781 251.058594 427.945312 251 431.59375 251.207031 C 437.832031 251.53125 441.007812 251.945312 442.832031 252.210938 C 446.242188 252.710938 445.800781 252.890625 447.15625 252.949219 C 452.332031 253.125 454.921875 250.761719 457.363281 252.210938 C 458.449219 252.859375 457.980469 253.507812 459.363281 254.984375 C 461.332031 257.082031 463.980469 257.40625 466.246094 257.820312 C 476.011719 259.5 476.511719 261.890625 482.132812 261.421875 C 484.574219 261.214844 485.074219 260.710938 486.777344 260.121094 C 486.777344 260.121094 487.691406 259.796875 489.191406 259.472656 C 492.101562 258.851562 497.605469 260.535156 501.839844 260.917969 C 503.132812 261.035156 507.632812 261.332031 512.578125 259.355469 C 515.839844 258.054688 518.164062 256.226562 519.578125 254.894531 C 519.578125 254.894531 522.167969 254.925781 524.109375 254.277344 C 527.050781 253.300781 526.871094 252.0625 529.667969 250.96875 C 530.695312 250.585938 533.785156 249.257812 537.082031 250.027344 C 538.433594 250.351562 538.699219 250.734375 540.492188 251.058594 C 541.84375 251.296875 542.875 251.265625 543.167969 251.265625 C 544.90625 251.207031 546.109375 250.792969 546.90625 250.558594 C 548.582031 250.054688 550.316406 250.085938 553.789062 249.996094 C 556.90625 249.9375 559.4375 250.203125 561.113281 250.46875 C 557.347656 248.636719 554.613281 247.988281 552.757812 247.753906 Z M 552.757812 247.753906 " fill-opacity="1" fill-rule="nonzero"/></g></svg>